<svg width="31" height="33" viewBox="0 0 31 33" fill="none" xmlns="http://www.w3.org/2000/svg">
<path d="M2.04834 0.755859C2.29672 0.89179 2.56472 0.995356 2.78043 1.17012C3.15955 1.47435 3.30335 1.90803 3.31643 2.38702C3.35565 3.86284 3.4014 5.34513 3.44716 6.82095C3.44716 6.8792 3.45369 6.93746 3.46677 7.0475C3.56482 6.95688 3.63672 6.89862 3.69555 6.83389C6.94421 3.63629 10.8661 2.09575 15.4483 2.27699C22.6973 2.56179 28.7959 7.97312 29.9463 15.0674C31.1621 22.5759 26.6519 29.7802 19.3114 32.0652C12.0166 34.3307 4.00276 30.8612 0.773708 24.0259C0.427271 23.2944 0.597221 22.5241 1.19858 22.0581C1.76726 21.6179 2.61702 21.6115 3.15301 22.0969C3.36872 22.2911 3.53867 22.563 3.67594 22.8284C5.29046 25.9807 7.79396 28.1102 11.2191 29.133C18.1021 31.1849 25.3315 26.8998 26.763 19.9415C28.1161 13.3456 23.8347 6.89862 17.1282 5.61052C12.8271 4.78199 9.06859 5.97947 5.93105 9.02173C5.89183 9.06056 5.85914 9.0994 5.77417 9.19002C5.93105 9.19002 6.04217 9.19002 6.14675 9.19002C7.64362 9.14471 9.14049 9.09293 10.6308 9.06056C11.2976 9.04762 11.7878 9.36479 12.0689 9.95382C12.3499 10.5299 12.2715 11.093 11.8728 11.5979C11.5721 11.9798 11.1603 12.174 10.67 12.187C7.86586 12.2711 5.06822 12.3617 2.26404 12.4394C1.12668 12.4718 0.427271 11.7921 0.388052 10.6723C0.309613 8.01843 0.224638 5.36455 0.1462 2.71067C0.113517 1.57144 0.374979 1.18954 1.42083 0.755859C1.63 0.755859 1.83917 0.755859 2.04834 0.755859Z" fill="#B3B3B4"/>
</svg>
