<svg id="Layer_1" data-name="Layer 1" xmlns="http://www.w3.org/2000/svg" viewBox="0 0 166 123"><title>mocktest-01</title><path d="M75.2,119.2H23.7a5.9,5.9,0,0,1-4.5-5.5V98.3a4.7,4.7,0,0,1,.2-1.7A5.9,5.9,0,0,1,25,92.3H67.4a.2.2,0,0,0,.2-.2V85.9h0c0-.4,0-.4-.4-.4H25.3a6,6,0,0,1-6.1-5.7V22.4a5.1,5.1,0,0,1,.3-2.1,5.7,5.7,0,0,1,5.4-4H126.7a6.1,6.1,0,0,1,4.5,4.5c0,.4.1.9.1,1.3V61.4c0,.3,0,.4.3.4h11.9a10,10,0,0,1,9.8,7.4,9.5,9.5,0,0,1,.4,3V90c0,.2-.1.5.1.7l.7.2a8.4,8.4,0,0,1,4,2.3,13.1,13.1,0,0,1,3.2,4.8,16.9,16.9,0,0,1,1.2,5.5,19.4,19.4,0,0,1-.6,6.8,14.3,14.3,0,0,1-2.9,5.6,9,9,0,0,1-3.2,2.6,7.7,7.7,0,0,1-7.2-.1,9.8,9.8,0,0,1-2.9-2.4,15.6,15.6,0,0,1-3-5.7,20.2,20.2,0,0,1-.6-6.9,18.9,18.9,0,0,1,1.7-6.6,17.2,17.2,0,0,1,2.5-3.5,8.9,8.9,0,0,1,4.8-2.5c.2-.1.3-.1.3-.3V72.1a7.9,7.9,0,0,0-1.7-5.1,8,8,0,0,0-5.5-3.2H131.5c-.2,0-.2.1-.2.3V79.3a6.4,6.4,0,0,1-.3,2,5.7,5.7,0,0,1-4.7,4H83.8c-.3,0-.6-.1-.8,0s-.1.6-.1.9v5.8a.2.2,0,0,0,.2.2h42l2.1.3a5.9,5.9,0,0,1,4.1,5.5v15.4a5.7,5.7,0,0,1-2,4.3,5.2,5.2,0,0,1-3.6,1.4H75.2Zm.1-24.9H24.9a3.7,3.7,0,0,0-3.6,2.8,3,3,0,0,0-.2,1.3v14.8a1.7,1.7,0,0,0,.1.7,3.6,3.6,0,0,0,2.6,3.2,4.4,4.4,0,0,0,1.6.2H125.6a3.8,3.8,0,0,0,3.6-2.9,6.6,6.6,0,0,0,.1-1.4V97.8a3.8,3.8,0,0,0-3.1-3.4H75.3Zm-.1-76.1H24.8a4.1,4.1,0,0,0-3.6,2.9,6.6,6.6,0,0,0-.1,1.4V79.2a2.5,2.5,0,0,0,.1.8A3.7,3.7,0,0,0,24,83.3H125.8a3.8,3.8,0,0,0,3.4-2.7,7.6,7.6,0,0,0,.1-1.5V21.7a3.8,3.8,0,0,0-3.5-3.4H75.2Zm77.5,85.5h-8.1a.2.2,0,0,0-.2.2v.2a17.9,17.9,0,0,0,.7,6.1,14.5,14.5,0,0,0,2.6,4.7,6.7,6.7,0,0,0,2.5,1.9,5.6,5.6,0,0,0,4.4.3,8.1,8.1,0,0,0,3.1-2.1,11.7,11.7,0,0,0,1.9-3,16,16,0,0,0,1.4-8c0-.3,0-.3-.3-.3h-8ZM75.2,92.3h5.6a.2.2,0,0,0,.2-.2V85.6l-.2-.2H69.5v6.7h5.7Zm76.6.5h-.6a8.1,8.1,0,0,0-4.3,3.4,13.4,13.4,0,0,0-2,4.6,6.4,6.4,0,0,1-.2.7c0,.2,0,.2.2.2h6.4c.5,0,.5.1.5-.5V92.8Zm2,0a.6.6,0,0,0-.1.4v8a.8.8,0,0,0,.1.4c0,.1,0,.1.1.1h6.6c.2,0,.2,0,.2-.2a16.8,16.8,0,0,0-1.2-3.8,10.1,10.1,0,0,0-2.9-3.6,7,7,0,0,0-2.4-1.3Z" fill="#060505"/><path d="M141.8,31.2a.9.9,0,0,1,.7.3c.1.1.3.2.4.4l3.3,3.2a1.2,1.2,0,0,1,0,1.9l-3.5,3.4-.2.2a1,1,0,0,1-1.4,0l-.2-.3c-1.1-1.1-2.3-2.2-3.4-3.4s-.1-.1-.2-.2a.9.9,0,0,1,0-1.3.2.2,0,0,1,.2-.2c1.1-1.2,2.3-2.4,3.5-3.5A.9.9,0,0,1,141.8,31.2Zm2.4,4.8L142,33.8h-.3l-2.1,2.1q-.3.1,0,.3l2.1,2.1h.1Z" fill="#3c6ab6"/><path d="M132.8,6.2h1.3c.3,0,.4-.1.4-.5V3.5a.9.9,0,0,1,.1-.5,1.1,1.1,0,0,1,1.2-.8,1.1,1.1,0,0,1,1,1,4.9,4.9,0,0,0,.1,1.2V5.9a.3.3,0,0,0,.3.3h2.6a1.1,1.1,0,0,1,1,1.2,1,1,0,0,1-1,1.1h-2.7c-.1,0-.2.1-.2.3V10a6.1,6.1,0,0,1-.1,1.4,1.1,1.1,0,0,1-1.2,1.1,1.2,1.2,0,0,1-1.1-1.2V9.1c0-.6,0-.6-.6-.6h-2.2a1.3,1.3,0,0,1-1.2-.9,1.3,1.3,0,0,1,1.1-1.4Z" fill="#7ea9fb"/><path d="M12.3,50.8H12L5.7,49.3H5.2a1,1,0,0,1-.4-1.4l.3-.4c1.4-1.5,2.8-3.1,4.3-4.6l.3-.3c.5-.6,1.3-.4,1.6.4s.1.2.1.3c.6,2,1.3,4,1.9,6.1.1.1.1.2.1.4S13.1,50.8,12.3,50.8ZM9.9,45.1l-.3.3L8.2,46.9l-.5.6a.2.2,0,0,0,0,.3l3,.6c.1,0,.2.1.2,0A18,18,0,0,0,9.9,45.1Z" fill="#3c6ab6"/><path d="M152.7,103.7h8c.3,0,.3,0,.3.3a16,16,0,0,1-1.4,8,11.7,11.7,0,0,1-1.9,3,8.1,8.1,0,0,1-3.1,2.1,5.6,5.6,0,0,1-4.4-.3,6.7,6.7,0,0,1-2.5-1.9,14.5,14.5,0,0,1-2.6-4.7,17.9,17.9,0,0,1-.7-6.1v-.2a.2.2,0,0,1,.2-.2h8.1Z" fill="#fff"/><path d="M151.8,92.8v8.4c0,.6,0,.5-.5.5h-6.4c-.2,0-.2,0-.2-.2a6.4,6.4,0,0,0,.2-.7,13.4,13.4,0,0,1,2-4.6,8.1,8.1,0,0,1,4.3-3.4Z" fill="#fff"/><path d="M153.8,92.8h.4a7,7,0,0,1,2.4,1.3,10.1,10.1,0,0,1,2.9,3.6,16.8,16.8,0,0,1,1.2,3.8c0,.2,0,.2-.2.2h-6.6c-.1,0-.1,0-.1-.1a.8.8,0,0,1-.1-.4v-8A.6.6,0,0,1,153.8,92.8Z" fill="#fff"/><path d="M81.2,110.5H95.1c.3,0,.3.1.3.3v1.4c0,.2-.1.2-.2.3H67.7c-.6,0-.6,0-.6-.6v-1.1c0-.3,0-.3.4-.3H81.2Z" fill="#060505"/><path d="M108.1,101h-2.4c-.3,0-.3,0-.3-.2V99.3l.2-.2h2.2c.2,0,.3,0,.3.2Z" fill="#060505"/><path d="M44.4,101H41.7c-.1-.2,0-.5,0-.8a1.4,1.4,0,0,1,0-.9c0-.1,0-.2.2-.2h2.2c.1,0,.2,0,.2.1A10.9,10.9,0,0,1,44.4,101Z" fill="#060505"/><path d="M82.6,99.1V101H80a4.1,4.1,0,0,1-.1-1.1v-.6l.2-.2h2.5Z" fill="#060505"/><path d="M43,106.7H41.8c-.1,0-.1,0-.1-.1V105c0-.1,0-.2.1-.2h2.4c.1,0,.1.1.1.2a4.3,4.3,0,0,1,0,1.6c0,.1-.1.1-.2.1Z" fill="#060505"/><path d="M82.6,106.7H80.1c-.1,0-.2,0-.2-.2v-1.4c0-.2.1-.3.2-.3h2.3a.2.2,0,0,1,.2.2A9.7,9.7,0,0,1,82.6,106.7Z" fill="#060505"/><path d="M105.4,106.7V105a.2.2,0,0,1,.2-.2h2.2c.3,0,.3.1.3.3a8.5,8.5,0,0,1,0,1.6h-2.7Z" fill="#060505"/><path d="M42.9,112.5h-1c-.2,0-.2-.1-.2-.2v-1.6c0-.1,0-.2.2-.2h2.2a.3.3,0,0,1,.3.3v1.4a.3.3,0,0,1-.3.3Z" fill="#060505"/><path d="M105.4,110.6H108a1.7,1.7,0,0,1,.1,1c0,1,.1.9-.8.9h-1.7a.2.2,0,0,1-.2-.2v-1.7Z" fill="#060505"/><path d="M94,101H92.7V99.3a.2.2,0,0,1,.2-.2h2.3l.2.2v1.5c0,.2,0,.2-.3.2Z" fill="#060505"/><path d="M55.6,101H54.4V99.8c0-.8-.1-.7.7-.7h1.8c.2,0,.2.1.2.3v1.4c0,.2-.1.2-.2.2Z" fill="#060505"/><path d="M113.1,101H112c-.2,0-.2,0-.2-.2V99.3c0-.1,0-.2.2-.2h2.3a.2.2,0,0,1,.2.2v1.5c0,.2-.1.2-.3.2Z" fill="#060505"/><path d="M119.5,101h-1.1c-.1,0-.2,0-.2-.2V99.3a.2.2,0,0,1,.2-.2h2.2c.2,0,.3.1.3.2v1.6h-1.4Z" fill="#060505"/><path d="M30.2,101H29.1c-.2,0-.2,0-.2-.2V99.3c0-.1,0-.2.2-.2h2.3l.2.2v1.6H30.2Z" fill="#060505"/><path d="M36.7,101H35.6c-.3,0-.3,0-.3-.2a9.7,9.7,0,0,1,0-1.7h2.4c.2,0,.3,0,.3.3v.3c-.1.4.1.9-.1,1.3Z" fill="#060505"/><path d="M49.4,101H48V99.3l.2-.2h2.3l.2.2v1.5c0,.2-.1.2-.2.2Z" fill="#060505"/><path d="M68.5,101H67.4c-.2,0-.2,0-.2-.2V99.4c0-.3,0-.3.2-.3h2.2c.2,0,.3,0,.3.3v1.4c0,.2-.1.2-.2.2Z" fill="#060505"/><path d="M75,99.1h.9c.3,0,.4,0,.4.3a8.6,8.6,0,0,1-.1,1.6H73.8c-.2,0-.2,0-.2-.2V99.4c0-.3,0-.3.3-.3Z" fill="#060505"/><path d="M87.6,101H86.3V99.3l.2-.2h2.3a.2.2,0,0,1,.2.2v1.5c0,.2,0,.2-.3.2Z" fill="#060505"/><path d="M30.3,112.5H29.1c-.1,0-.2-.1-.2-.3v-1.5a.2.2,0,0,1,.2-.2h2.3a.2.2,0,0,1,.2.2v1.6a.2.2,0,0,1-.2.2Z" fill="#060505"/><path d="M60.8,101V99.4c0-.2.1-.3.2-.3h2.2a.3.3,0,0,1,.3.3v1.5H60.8Z" fill="#060505"/><path d="M49.5,106.7H48.2c-.1,0-.2,0-.2-.2V105a.2.2,0,0,1,.2-.2h2.2c.3,0,.3,0,.3.4h0a6.6,6.6,0,0,1,0,1.4Z" fill="#060505"/><path d="M55.8,106.7H54.6c-.1,0-.2,0-.2-.1V105c0-.1.1-.2.3-.2h1.5c.3,0,.7-.1.9.1s0,.6,0,.9.1.6-.1.9H55.8Z" fill="#060505"/><path d="M68.5,106.7H67.4c-.2,0-.2,0-.2-.2V105a.2.2,0,0,1,.2-.2h2.3c.1,0,.2.1.2.3v1.4c0,.2-.1.3-.2.3H68.5Z" fill="#060505"/><path d="M87.7,106.7H86.5c-.1,0-.2,0-.2-.1h0a4.3,4.3,0,0,1,.1-1.6h2.5a1.7,1.7,0,0,1,.1,1c0,.3.1.6-.1.8H87.7Z" fill="#060505"/><path d="M94,106.8H92.9c-.2,0-.2,0-.2-.2a4.2,4.2,0,0,1,.1-1.6h2.4l.2.2v1.6c0,.1-.1.1-.2.1H94Z" fill="#060505"/><path d="M113.2,106.7H112c-.1,0-.2,0-.2-.2v-1.4c0-.2,0-.3.2-.3h2.3a.2.2,0,0,1,.2.2v.3a6.6,6.6,0,0,1-.1,1.4Z" fill="#060505"/><path d="M119.5,106.7h-1.2c-.1,0-.1,0-.1-.1v-.2a7.5,7.5,0,0,1,0-1.5c.5-.2,1,0,1.5-.1h.9a.3.3,0,0,1,.3.3v1.4c0,.2-.1.2-.2.2Z" fill="#060505"/><path d="M36.6,112.5H35.5a.2.2,0,0,1-.2-.2v-1.6c0-.1,0-.2.2-.2h2.3a.2.2,0,0,1,.2.2v1.6a.2.2,0,0,1-.2.2Z" fill="#060505"/><path d="M74.9,106.7H73.7c-.1,0-.1,0-.1-.1V105l.2-.2H76c.2,0,.3.1.3.2v1.5c0,.2-.1.2-.3.2Z" fill="#060505"/><path d="M49.4,112.5H48.3a.3.3,0,0,1-.3-.3v-1.5c0-.1.1-.1.2-.2h2.3c.2,0,.2.1.2.2v1.5c0,.2,0,.3-.2.3Z" fill="#060505"/><path d="M55.7,112.5H54.6c-.1,0-.2-.1-.2-.3v-1.4c0-.2.1-.3.2-.3h2.3c.1,0,.2.1.2.3v1.4c0,.2-.1.3-.2.3Z" fill="#060505"/><path d="M30.3,106.7H29.1c-.2,0-.2,0-.2-.2V105a.2.2,0,0,1,.2-.2h2.3a.2.2,0,0,1,.2.2v1.6c0,.1-.1.1-.2.1Z" fill="#060505"/><path d="M36.5,106.8c-.4-.1-.8.1-1.2-.1a4.8,4.8,0,0,1,0-1.2v-.3c0-.4,0-.4.3-.4h1.1a2.5,2.5,0,0,1,1.2.1,4.9,4.9,0,0,1,.1,1.2c0,.7.1.6-.7.7Z" fill="#060505"/><path d="M113.2,112.5H112c-.2,0-.2-.1-.2-.3v-1.4c0-.2.1-.3.2-.3h2.3c.1,0,.2.1.2.3v1.4c0,.2-.1.3-.2.3Z" fill="#060505"/><path d="M119.5,112.5h-1.1a.2.2,0,0,1-.2-.2v-1.6c0-.1,0-.2.1-.2h2.4a.2.2,0,0,1,.2.2v1.6a.2.2,0,0,1-.2.2Z" fill="#060505"/><path d="M62.1,106.8h-1c-.3-.1-.3-.1-.3-.3v-1.3c0-.4,0-.4.3-.4h2.2a.2.2,0,0,1,.2.2v1.5c0,.2-.1.2-.3.2Z" fill="#060505"/><path d="M62.1,112.5H61a.2.2,0,0,1-.2-.2v-1.6a.2.2,0,0,1,.2-.2h2.3c.1,0,.2.1.2.3v1.4c0,.2-.1.3-.2.3Z" fill="#060505"/><path d="M75.2,77.9H29.7a4.1,4.1,0,0,1-3.3-4V28.1a4.9,4.9,0,0,1,.1-1.2,3.9,3.9,0,0,1,3.3-3.2h90.8A3.9,3.9,0,0,1,124,27c0,.3.1.6.1.9V73.6a4.3,4.3,0,0,1-.8,2.7,4.1,4.1,0,0,1-3.1,1.6h-45Zm-.1-42.8H55.8a3.7,3.7,0,0,0-3.4,2.7c0,.4-.1.7-.1,1.1V63.5a3.8,3.8,0,0,0,2.6,3.4l1.4.2h38a3.7,3.7,0,0,0,2.9-1.6,3.9,3.9,0,0,0,.7-2.3V38.9a3.8,3.8,0,0,0-.1-1,3.7,3.7,0,0,0-3.4-2.8H75.1Z" fill="#3b6ab6"/><path d="M75.1,35.1H94.4a3.7,3.7,0,0,1,3.4,2.8,3.8,3.8,0,0,1,.1,1V63.2a3.9,3.9,0,0,1-.7,2.3,3.7,3.7,0,0,1-2.9,1.6h-38l-1.4-.2a3.8,3.8,0,0,1-2.6-3.4V38.9c0-.4.1-.7.1-1.1a3.7,3.7,0,0,1,3.4-2.7H75.1Zm0,30H94.3A1.8,1.8,0,0,0,96,63.4V38.5A1.8,1.8,0,0,0,94.6,37H83.2a1.5,1.5,0,0,0-1.5,1l-2.4,5.3c-.3.7-.1.6-1,.6H55.8a1.7,1.7,0,0,0-1.5,1.7V63.5a1.6,1.6,0,0,0,1.6,1.6H75.1ZM54.3,42.4a5.3,5.3,0,0,1,2.5-.4H77.4a.7.7,0,0,0,.6-.3l1.9-4.5c.1,0,.1-.1,0-.2H55.8a1.7,1.7,0,0,0-1.5,1.6Z" fill="#060505"/><path d="M75.1,65.1H55.9a1.6,1.6,0,0,1-1.6-1.6V45.6a1.7,1.7,0,0,1,1.5-1.7H78.3c.9,0,.7.1,1-.6L81.7,38a1.5,1.5,0,0,1,1.5-1H94.6A1.8,1.8,0,0,1,96,38.5V63.4a1.8,1.8,0,0,1-1.7,1.7H75.1Z" fill="#7eb2ff"/><path d="M54.3,42.4V38.6A1.7,1.7,0,0,1,55.8,37H79.9c.1.1.1.2,0,.2L78,41.7a.7.7,0,0,1-.6.3H56.8A5.3,5.3,0,0,0,54.3,42.4Z" fill="#afdafd"/></svg>