<svg width="41" height="33" viewBox="0 0 41 33" fill="none" xmlns="http://www.w3.org/2000/svg">
<path fill-rule="evenodd" clip-rule="evenodd" d="M40.2513 3.78068C40.062 2.73958 39.4031 2.00799 38.5478 1.45226C37.4612 0.748812 36.2764 0.608122 35.0286 0.896537C33.7177 1.19902 32.7923 2.00799 32.1123 3.14054C31.9861 3.35158 32.0212 3.48523 32.2455 3.65406C32.4733 3.82992 32.7029 4.00402 32.9325 4.17813C33.1621 4.35223 33.3917 4.52634 33.6195 4.7022C33.8298 4.864 34.0191 4.83586 34.1874 4.63186C34.2295 4.58297 34.2716 4.53384 34.3138 4.48461C34.4964 4.27167 34.6808 4.05671 34.8744 3.85103C35.4212 3.26013 36.2975 3.2953 36.8092 3.53447C37.7416 3.97061 37.5453 4.87806 36.9354 5.25089C36.8778 5.28559 36.819 5.31672 36.7604 5.3477C36.6766 5.3921 36.5932 5.4362 36.5148 5.49007C36.4186 5.55168 36.3212 5.61089 36.224 5.66998L36.2239 5.67003L36.2239 5.67005C35.9882 5.81333 35.7538 5.9559 35.5404 6.13021C34.8954 6.65779 34.5168 7.32607 34.5869 8.20538C34.615 8.5149 34.7201 8.64152 35.0286 8.64152H36.0171H37.0195C37.3 8.64152 37.3981 8.54304 37.4542 8.28276C37.4822 8.13504 37.5383 7.99435 37.6084 7.86069C37.7837 7.54414 38.0501 7.32607 38.3585 7.13614L38.4195 7.09891L38.4196 7.09889C38.7224 6.91418 39.029 6.72713 39.3049 6.50303C40.1672 5.79255 40.4406 4.84993 40.2513 3.78068ZM31.867 9.0638L32.1474 8.85277V8.50104L32.0493 8.39553L32.0492 8.3955C31.9441 8.28296 31.8389 8.17041 31.7338 8.05084L31.6984 8.01114L31.6984 8.01111L31.6984 8.01107C31.471 7.75583 31.2352 7.49101 30.9486 7.27704C29.189 5.93345 26.9527 5.91938 25.123 7.2489C22.7956 8.93718 20.4611 10.6325 18.1337 12.3278L15.0421 14.5789L14.8669 14.6984L11.4879 12.2364C11.5002 12.1991 11.515 12.1644 11.5294 12.1306C11.5395 12.1069 11.5493 12.0837 11.558 12.0605L11.5684 12.0339C11.6907 11.7203 11.8057 11.4255 11.8875 11.1108C12.0347 10.541 12.1048 10.0768 12.1188 9.64063C12.2029 6.30628 9.74229 3.54172 6.51052 3.35179C4.63174 3.23924 2.85111 4.06227 1.63831 5.60986C0.383459 7.21373 -0.0161312 9.33111 0.57975 11.2656C1.09852 12.9609 2.27626 14.3397 3.81153 15.0502C5.30473 15.7395 6.98021 15.7536 8.5295 15.0853C8.64167 15.0361 8.6627 15.0361 8.78187 15.1205C9.78436 15.8591 10.7938 16.5978 11.8103 17.3293L12.8058 18.0539L12.3572 18.3775C11.595 18.9337 10.8328 19.4873 10.0788 20.0348C9.61232 20.3736 9.14897 20.7101 8.69074 21.0436C8.66971 21.0506 8.61362 21.0436 8.59259 21.0365C6.67876 20.2346 4.82803 20.3823 3.09647 21.4727C0.762019 22.9429 -0.282525 26.0451 0.663874 28.6971C1.57522 31.2436 3.70637 32.756 6.24412 32.756C6.57361 32.756 6.91011 32.7279 7.25361 32.6786C8.71177 32.4535 10.0858 31.5672 11.0112 30.2376C11.9786 28.8589 12.3501 27.1776 12.0487 25.623C11.9576 25.1517 11.8104 24.7085 11.6561 24.2443L11.6561 24.2443L11.5299 23.8433L14.8879 21.4023L16.956 22.9007L25.137 28.8519C26.3989 29.7734 27.78 30.0477 29.2381 29.6749C30.3738 29.3865 31.3342 28.7112 32.0913 27.6701L32.1614 27.5153V27.1917L31.888 27.051C31.8729 27.0419 31.8565 27.0341 31.8405 27.0265C31.8193 27.0165 31.7988 27.0068 31.7829 26.9947L19.4797 18.0539C21.5233 16.566 23.567 15.0799 25.6107 13.5937L25.617 13.5891L25.62 13.5869C27.6603 12.1032 29.7005 10.6196 31.7408 9.13415C31.7689 9.11157 31.8061 9.09352 31.8414 9.07636L31.867 9.0638ZM8.75383 26.7556C8.70476 27.5294 8.38228 28.2047 7.84248 28.676C7.34475 29.1051 6.6998 29.3091 6.0268 29.2528C4.6738 29.1332 3.6573 27.9444 3.71338 26.5516C3.74142 25.7918 4.05689 25.1095 4.58968 24.6382C5.04535 24.2372 5.6202 24.0121 6.19505 24.0121C6.25113 24.0121 6.31423 24.0121 6.37031 24.0192H6.37732C7.02928 24.0473 7.63918 24.3427 8.08084 24.8422C8.55053 25.3627 8.79589 26.0592 8.75383 26.7556ZM8.75383 9.35222C8.79589 10.0557 8.55053 10.7521 8.08084 11.2797C7.63217 11.7791 7.01526 12.0746 6.34928 12.1027H6.34227C5.70432 12.1379 5.06638 11.9128 4.57566 11.4626C4.04988 10.9913 3.74843 10.3159 3.71338 9.56325C3.6573 8.16339 4.6738 6.97456 6.0268 6.862C6.1039 6.85497 6.174 6.85497 6.2511 6.85497H6.25113C6.84 6.85497 7.40083 7.05897 7.84248 7.44587C8.38228 7.90311 8.70476 8.57842 8.75383 9.35222ZM30.1704 19.2429H27.4224V17.2732H30.1704V19.2429ZM22.6553 19.2429H25.4033V17.2732H22.6553V19.2429ZM36.0311 10.0628H37.0055C37.321 10.0628 37.4542 10.1895 37.4612 10.506V12.4897C37.4542 12.7993 37.328 12.9329 37.0196 12.9329C36.8004 12.9329 36.5805 12.9337 36.3601 12.9345C35.9176 12.936 35.4731 12.9376 35.0286 12.9329C34.7272 12.9329 34.594 12.8063 34.594 12.5038C34.5893 12.0632 34.5908 11.6195 34.5924 11.1748C34.5932 10.952 34.594 10.729 34.594 10.506C34.594 10.1965 34.7201 10.0628 35.0286 10.0628H36.0311Z" fill="#B3B3B4"/>
</svg>
