<svg width="268" height="268" viewBox="0 0 268 268" fill="none" xmlns="http://www.w3.org/2000/svg">
<mask id="mask0_1123_453" style="mask-type:alpha" maskUnits="userSpaceOnUse" x="0" y="0" width="268" height="268">
<circle cx="133.875" cy="134" r="133.5" fill="#D9D9D9"/>
</mask>
<g mask="url(#mask0_1123_453)">
<path d="M267.375 134C267.375 207.73 207.605 267.5 133.875 267.5C60.145 267.5 0.375 207.73 0.375 134C0.375 60.27 60.145 0.5 133.875 0.5C207.605 0.5 267.375 60.27 267.375 134Z" fill="#CACBD0"/>
<mask id="mask1_1123_453" style="mask-type:alpha" maskUnits="userSpaceOnUse" x="44" y="176" width="179" height="128">
<path d="M44.75 236.25C44.75 203.113 71.6129 176.25 104.75 176.25H163C196.137 176.25 223 203.113 223 236.25V303.25H44.75V236.25Z" fill="#FEFEFE"/>
</mask>
<g mask="url(#mask1_1123_453)">
<path d="M267.375 134C267.375 207.73 207.605 267.5 133.875 267.5C60.145 267.5 0.375 207.73 0.375 134C0.375 60.27 60.145 0.5 133.875 0.5C207.605 0.5 267.375 60.27 267.375 134Z" fill="#FEFEFE"/>
</g>
<path d="M176 118.5C176 145.286 157.14 167 133.875 167C110.61 167 91.75 145.286 91.75 118.5C91.75 91.7142 110.61 70 133.875 70C157.14 70 176 91.7142 176 118.5Z" fill="#FEFEFE"/>
<path fill-rule="evenodd" clip-rule="evenodd" d="M133.875 260.5C203.739 260.5 260.375 203.864 260.375 134C260.375 64.136 203.739 7.5 133.875 7.5C64.011 7.5 7.375 64.136 7.375 134C7.375 203.864 64.011 260.5 133.875 260.5ZM133.875 267.5C207.605 267.5 267.375 207.73 267.375 134C267.375 60.27 207.605 0.5 133.875 0.5C60.145 0.5 0.375 60.27 0.375 134C0.375 207.73 60.145 267.5 133.875 267.5Z" fill="#B6B7BB"/>
</g>
</svg>
