<svg width="29" height="36" viewBox="0 0 29 36" fill="none" xmlns="http://www.w3.org/2000/svg">
<path fill-rule="evenodd" clip-rule="evenodd" d="M0.963666 8.42972C0.451353 8.63601 0.203269 9.21855 0.409554 9.73086L0.910865 10.9759C1.11715 11.4882 1.69969 11.7363 2.212 11.53L21.0898 3.92876C21.6021 3.72248 21.8502 3.13994 21.6439 2.62762L21.1426 1.38261C20.9363 0.870299 20.3537 0.622214 19.8414 0.8285L14.0635 3.15501C13.8073 3.25815 13.5161 3.13411 13.4129 2.87795L13.271 2.52549C13.0647 2.01318 12.4822 1.7651 11.9699 1.97138L7.49542 3.77304C6.98311 3.97933 6.73502 4.56187 6.94131 5.07418L7.08323 5.42664C7.18637 5.6828 7.06233 5.97407 6.80617 6.07721L0.963666 8.42972ZM4.03928 12.461C2.5629 12.461 1.40807 13.7336 1.55103 15.203L3.13436 31.4774C3.33374 33.5269 5.05644 35.0901 7.11556 35.0901H18.5695C20.6286 35.0901 22.3513 33.5269 22.5507 31.4774L24.134 15.203C24.277 13.7336 23.1221 12.461 21.6458 12.461H4.03928ZM25.8356 3.95177C26.1775 3.7713 26.6009 3.90216 26.7814 4.24405L26.9847 4.62922C27.1652 4.97112 27.0343 5.39457 26.6925 5.57504L23.4427 7.29048C23.1008 7.47095 22.6773 7.34009 22.4968 6.9982L22.2935 6.61303C22.113 6.27113 22.2439 5.84768 22.5858 5.66721L25.8356 3.95177ZM28.2795 9.44405C28.2806 9.05745 27.9681 8.74316 27.5815 8.74206L23.9067 8.7316C23.5201 8.7305 23.2059 9.043 23.2048 9.4296L23.2035 9.86514C23.2024 10.2517 23.5149 10.566 23.9015 10.5671L27.5763 10.5776C27.9629 10.5787 28.2772 10.2662 28.2783 9.87959L28.2795 9.44405Z" fill="#B3B3B4"/>
</svg>
