<svg id="Layer_1" data-name="Layer 1" xmlns="http://www.w3.org/2000/svg" viewBox="0 0 166 71"><title>logo ielts</title><path d="M131.1,1.9A33,33,0,0,0,98,34.9v33h33.1a33,33,0,1,0,0-66Z" fill="#14356b"/><path d="M2.3,24.3H8.7c.2,0,.2.1.2.2V49.6c0,.2-.1.2-.3.2H2.3Z" fill="#e30224"/><path d="M11.7,37.1V24.6c0-.2,0-.3.2-.3H31.2a.3.3,0,0,1,.3.3v4.7c0,.2-.1.2-.3.2H18.4a.3.3,0,0,0-.3.3V34c0,.2,0,.3.3.3H31.2c.2,0,.3,0,.3.3v4.5a.3.3,0,0,1-.3.3H18.4a.3.3,0,0,0-.3.3v4.7a.3.3,0,0,0,.3.3H31.2c.3,0,.3-.1.3.3v4.7c0,.2-.1.2-.3.2H11.9c-.2,0-.2,0-.2-.2Z" fill="#e30224"/><path d="M73,41.1h2.9c.2,0,.2,0,.3.2a4.1,4.1,0,0,0,.3,1.6,3.6,3.6,0,0,0,2.6,2.3,7.7,7.7,0,0,0,4.5-.1,1.9,1.9,0,0,0,1.6-1.7A2.1,2.1,0,0,0,84,40.9l-2.5-.8a36.4,36.4,0,0,1-4.7-1.4,17.5,17.5,0,0,1-2.4-1.1,7.4,7.4,0,0,1-3.5-3.7,7.2,7.2,0,0,1,.3-5.9,7.6,7.6,0,0,1,4.1-3.8,14.9,14.9,0,0,1,6.3-1,12.3,12.3,0,0,1,4.2,1,7.5,7.5,0,0,1,4.8,6.3c0,.3.1.7.1,1s0,.2-.2.2H84.7c-.1,0-.1,0-.1-.1a3.2,3.2,0,0,0-2.8-3.1,6.5,6.5,0,0,0-3.4.1,2.1,2.1,0,0,0-1,.6,1.9,1.9,0,0,0-.1,2.9,4.4,4.4,0,0,0,1.9,1c1.5.6,3.1,1,4.6,1.5a19.3,19.3,0,0,1,4,1.5,7.3,7.3,0,0,1,3,2.8,7.2,7.2,0,0,1,.8,3.5,9.3,9.3,0,0,1-.5,2.9,7.7,7.7,0,0,1-3.3,3.6,13.7,13.7,0,0,1-4.5,1.3,23.5,23.5,0,0,1-5.3,0,8.7,8.7,0,0,1-5.4-2.3,7.1,7.1,0,0,1-2.3-4.2,18.5,18.5,0,0,1-.4-2.3c0-.2,0-.2.2-.2Z" fill="#e30224"/><path d="M58.4,24.3H68.8c.2,0,.3,0,.3.3v4.7c0,.2-.1.2-.2.2H62c-.2,0-.3,0-.3.3V49.6c0,.2,0,.2-.3.2h-6c-.2,0-.2,0-.2-.2V29.8c0-.2,0-.3-.3-.3H48c-.2,0-.2,0-.2-.2V24.5c0-.2,0-.2.2-.2Z" fill="#e30224"/><path d="M34,37.1V24.6c0-.2,0-.3.2-.3h6.1c.2,0,.2.1.2.2V44.1a.3.3,0,0,0,.3.3H52.3a.3.3,0,0,1,.3.3v5c0,.2-.1.2-.3.2H34.2c-.2,0-.2,0-.2-.2Z" fill="#e30224"/><path d="M93.3,26.2c.1-.6.3-1.2.4-1.8s.1-.2.3-.2.5-.1.6.1.1.4.1.6v2.2c0,.1,0,.2-.2.2s-.4,0-.4-.4V25.1a6.4,6.4,0,0,0-.2.7l-.3,1.3c0,.2-.1.2-.2.2h-.3l-.2-.2c-.1-.6-.3-1.3-.4-1.9h-.1v2c0,.2-.1.2-.3.2s-.3,0-.2-.2V24.4c0-.1,0-.2.1-.2h.7c.2.1.2.4.2.6l.3,1.2Z" fill="#e30224"/><path d="M90,26V24.9c0-.1,0-.2-.1-.1s-.4-.1-.5,0-.2-.1-.2-.2v-.2c0-.1,0-.2.2-.2h1.9c.2,0,.2.1.2.2v.2c0,.1,0,.2-.2.2h-.5c-.1-.1-.2,0-.2.1v2.2c0,.1,0,.2-.2.2h-.1c-.2,0-.3,0-.3-.2Z" fill="#e30224"/><path d="M103.2,28h-2V45.5h9.9v-2h-7.9Z" fill="#fff"/><path d="M116.1,36.2,111,28h-2.4l6.5,10.3v7.2h2V38.3L123.5,28h-2.3Z" fill="#fff"/><path d="M131.4,28h-6.6V45.5h6.6c4.8,0,8.3-3.8,8.3-8.8S136.2,28,131.4,28Zm-4.6,2h4.6c3.7,0,6.3,2.8,6.3,6.7s-2.6,6.8-6.3,6.8h-4.6Z" fill="#fff"/><path d="M144.2,28h-2V45.5h2Z" fill="#fff"/><path d="M154.4,28h-1.9l-6.8,17.5h2.2l1.6-4.3h7.9l1.6,4.3h2.2Zm2.2,11.2h-6.3l3.1-8.2Z" fill="#fff"/></svg>