<svg id="Layer_1" data-name="Layer 1" xmlns="http://www.w3.org/2000/svg" viewBox="0 0 166 123"><title>menu</title><path d="M39.5,57.5A27.3,27.3,0,1,0,12.4,30.2,27.3,27.3,0,0,0,39.5,57.5Zm0-42.3a15.1,15.1,0,1,1-15,15A15,15,0,0,1,39.5,15.2Z" fill="#e10422"/><path d="M82.5,37.3h69c3.6,0,6.4-3.2,6.4-7.1s-2.8-7-6.4-7h-69c-3.5,0-6.4,3.1-6.4,7S79,37.3,82.5,37.3Z" fill="#1c3967"/><path d="M130.9,65a27.2,27.2,0,1,0,27,27.2A27.1,27.1,0,0,0,130.9,65Zm0,42.2a15,15,0,1,1,14.9-15A15,15,0,0,1,130.9,107.2Z" fill="#1c3967"/><path d="M88.3,85.2H18.8c-3.5,0-6.4,3.1-6.4,7s2.9,7,6.4,7H88.3c3.5,0,6.4-3.1,6.4-7S91.8,85.2,88.3,85.2Z" fill="#1c3967"/></svg>