<svg id="Layer_1" data-name="Layer 1" xmlns="http://www.w3.org/2000/svg" viewBox="0 0 360 360"><title>slash  thanh-01</title><path d="M336.7,122.2l-75.6-94A59.1,59.1,0,0,0,217.2,8.5H96.3A87.9,87.9,0,0,0,8.5,96.3V263.7a87.8,87.8,0,0,0,87.8,87.8H263.7a87.9,87.9,0,0,0,87.8-87.8V161.3A58.4,58.4,0,0,0,336.7,122.2ZM209.5,109.4c7.5-2.7,14.5-1.6,20.4,3.7s11,10.6,16.2,16.2a19.8,19.8,0,0,1,.5,26.3c-2.7,3.1-5.9,5.6-8.7,8.3-14.2-14.1-28.4-28.4-42.8-42.8C199.6,117.1,203.2,111.6,209.5,109.4ZM142.7,249.6c-6.9.6-13.8,1.4-20.6,2.3-9.4,1.1-14.4-3.9-13.3-13.3.2-1.1.3-2.3.5-3.5.7-6.5,1.4-12.9,2.2-19.4a30.8,30.8,0,0,1,9.4-19l40.1-40c8.6-8.6,17.2-17.3,25.9-25.9a21.1,21.1,0,0,0,1.7-2.2l43.2,43.3-1.6,1.8c-21.9,21.8-43.9,43.7-65.7,65.6A33.9,33.9,0,0,1,142.7,249.6Zm93.1,2.4H208.5a15.6,15.6,0,0,1,0-31.1h27.3a15.6,15.6,0,0,1,0,31.1Z" fill="#c0d9ff"/><path d="M263.7,360H96.3A96.4,96.4,0,0,1,0,263.7V96.3A96.4,96.4,0,0,1,96.3,0H217.2a67.5,67.5,0,0,1,50.2,22.5l.2.3,75.5,93.8A67.4,67.4,0,0,1,360,161.3V263.7A96.4,96.4,0,0,1,263.7,360ZM96.3,17A79.4,79.4,0,0,0,16.9,96.3V263.7A79.4,79.4,0,0,0,96.3,343H263.7a79.4,79.4,0,0,0,79.4-79.3V161.3a50,50,0,0,0-12.7-33.4l-.3-.4L254.6,33.8A50,50,0,0,0,217.2,17ZM188,116.1l1.5-1.3,3.2-3.3c3.4-3.5,7.6-8,14-10.2h0c10.6-3.7,20.9-1.7,28.9,5.5,5.3,4.8,10.7,10.3,16.7,16.7a28.5,28.5,0,0,1,.7,37.7l-9.4,10.5-6,6.5-1.5,1.5c-6.2,6.3-12.4,12.5-18.7,18.7l-14.7,14.8a22,22,0,0,1,5.8-.8h27.3a24.1,24.1,0,0,1,0,48.1H208.5a24.1,24.1,0,0,1-24-24,22.1,22.1,0,0,1,.8-5.9l-14.8,14.8a42.8,42.8,0,0,1-27.1,12.7h0c-6.7.6-13.6,1.4-20.3,2.2-9.3,1.1-14.7-2.2-17.7-5.2s-6.1-8.4-4.9-17.5c0-.6.1-1.1.1-1.6l.3-2v-.4c.7-6.3,1.5-12.6,2.2-18.8a39.5,39.5,0,0,1,11.8-24.1L140,165.6l15-15,6.3-6.3,19.6-19.5.3-.5a8.6,8.6,0,0,0,.7-1Zm20.5,113.4a7,7,0,1,0,0,14h27.3a7,7,0,1,0,0-14Zm-19.7-88.6-15.6,15.5-6.3,6.3-15,15-25.1,25.1a22.1,22.1,0,0,0-6.9,13.9c-.7,6.3-1.5,12.5-2.2,18.8v.6l-.3,1.7a11.1,11.1,0,0,1-.2,1.9c-.3,2.6.2,3.4.2,3.4a6.6,6.6,0,0,0,3.7.3c6.8-.8,13.8-1.7,20.8-2.3h0a25.7,25.7,0,0,0,16.7-7.8l46.9-47L219.9,172ZM207,121.1l31.1,31.1c.8-.7,1.4-1.5,2.1-2.2a11.2,11.2,0,0,0-.3-14.9c-5.6-6-10.7-11.1-15.6-15.6s-7.2-3.8-12-2.1h-.1A16.7,16.7,0,0,0,207,121.1Zm-26.1,3.6Z"/></svg>