<svg id="Layer_1" data-name="Layer 1" xmlns="http://www.w3.org/2000/svg" viewBox="0 0 360 360"><title>slash  thanh-01</title><path d="M179.9,8.6h0A171.3,171.3,0,1,1,8.8,179.9,171.2,171.2,0,0,1,179.9,8.6ZM187,255.1h0c19.1-12.6,38.3-25.2,57.2-38.2,26.6-18.1,26.7-55.9.1-74.1h0q-28.7-19.5-57.6-38.4h0c-14.5-9.5-30.6-10.4-46-2s-23.2,22.3-23.3,39.6h0c-.1,6.3-.1,12.5-.1,18.8h0v9.4h0c0,3.1.1,6.2.1,9.4s-.1,6.3-.1,9.4h0v9.5h0c0,6.4,0,12.7.1,19,.1,17.3,7.7,31.3,23.2,39.7S172.3,264.8,187,255.1Z" fill="#c0d9ff"/><path d="M179.9,359.7A179.8,179.8,0,0,1,.1,179.9C.1,80.8,80.7.1,179.9,0h.2A179.6,179.6,0,0,1,359.8,179.8c.1,99.1-80.6,179.8-179.8,179.9Zm0-342.4c-89.6,0-162.5,73-162.5,162.6A162.3,162.3,0,0,0,179.9,342.4h.1c89.7-.1,162.6-73,162.5-162.6A162.3,162.3,0,0,0,180.1,17.3ZM162.1,271.7a53.3,53.3,0,0,1-25.7-6.9c-17.7-9.7-27.6-26.5-27.7-47.2V141.9c.2-20.7,10-37.4,27.9-47.1s37.5-9,54.8,2.4,37.1,24.3,57.8,38.5c15,10.3,23.7,26.4,23.7,44.1a53.4,53.4,0,0,1-23.8,44.3c-18.6,12.7-37,24.8-57.4,38.2h0C182.3,268.5,172.2,271.7,162.1,271.7Zm.1-166.5a36.7,36.7,0,0,0-17.4,4.7c-12.4,6.8-18.7,17.6-18.8,32.1v75.5c.1,14.6,6.4,25.4,18.7,32.1s25.3,6.4,37.5-1.7h0c20.3-13.3,38.6-25.4,57.2-38.1a36,36,0,0,0,16.2-30c0-11.9-5.9-22.8-16.1-29.8-20.7-14.1-41.6-27.9-57.5-38.4C175.5,107.4,168.8,105.2,162.2,105.2Z"/></svg>