<svg width="73" height="58" viewBox="0 0 73 58" fill="none" xmlns="http://www.w3.org/2000/svg">
<path d="M5.54038 33.1864C2.61183 33.1864 0.229492 35.5596 0.229492 38.477C0.229492 41.3943 2.61183 43.7676 5.54038 43.7676C8.46893 43.7676 10.8513 41.3943 10.8513 38.477C10.8513 35.5596 8.46893 33.1864 5.54038 33.1864ZM5.54038 41.5521C3.8377 41.5521 2.45348 40.1723 2.45348 38.477C2.45348 36.7817 3.83859 35.4019 5.54038 35.4019C7.24307 35.4019 8.62728 36.7817 8.62728 38.477C8.62728 40.1723 7.24218 41.5521 5.54038 41.5521Z" fill="#91CAFF"/>
<path d="M66.6162 2.71282C65.8206 2.71282 65.1748 3.35611 65.1748 4.14875V13.5328C65.1748 14.3255 65.8206 14.9688 66.6162 14.9688C67.4119 14.9688 68.0577 14.3255 68.0577 13.5328V4.14875C68.0577 3.35611 67.4119 2.71282 66.6162 2.71282Z" fill="#91CAFF"/>
<path d="M71.3254 7.40647H61.9053C61.1096 7.40647 60.4639 8.04976 60.4639 8.84239C60.4639 9.63502 61.1096 10.2783 61.9053 10.2783H71.3254C72.1211 10.2783 72.7668 9.63502 72.7668 8.84239C72.7668 8.04976 72.1222 7.40647 71.3254 7.40647Z" fill="#91CAFF"/>
<path d="M56.275 30.8564C56.4435 30.6268 56.5854 30.3692 56.7858 30.1694C59.535 27.4425 62.2771 24.7086 65.0512 22.008C67.1104 20.0013 70.319 20.2695 71.9401 22.539C73.2065 24.3108 73.015 26.6241 71.4169 28.2381C69.5758 30.0975 67.6993 31.9254 65.8369 33.7638C62.7064 36.8552 59.5794 39.9519 56.4382 43.031C56.1101 43.3535 55.9912 43.6794 55.993 44.1263C56.0072 48.0186 56.0019 51.911 56.0001 55.8015C56.0001 56.995 55.7571 57.2368 54.5758 57.2368C39.2583 57.2368 23.9426 57.2368 8.62518 57.2368C7.47051 57.2368 7.20978 56.9845 7.20978 55.8664C7.20801 35.1833 7.20801 22.0343 7.20801 1.34943C7.20801 0.271638 7.47761 0.010515 8.58615 0.010515C20.7163 0.010515 32.8447 0.01402 44.9749 0C45.5549 0 45.9735 0.184013 46.3743 0.588842C49.3612 3.60666 52.3534 6.61746 55.3704 9.60548C55.8351 10.0646 56.009 10.5448 56.0072 11.1757C55.9948 19.9225 55.9983 21.1317 55.9983 29.8785C55.9983 30.1536 55.9983 30.4288 55.9983 30.7056C56.0905 30.7547 56.1828 30.8055 56.275 30.8564ZM9.04731 55.3984C24.1342 55.3984 39.1484 55.3984 54.1466 55.3984C54.1466 52.0459 54.1466 48.7477 54.1466 45.2882C53.3484 46.0856 52.6922 46.7954 51.9721 47.4368C51.5907 47.7768 51.1331 48.087 50.656 48.2622C48.2527 49.1385 45.8298 49.9657 43.4158 50.8121C42.9476 50.9769 42.3853 51.1907 42.0909 50.6982C41.8958 50.374 41.8994 49.808 42.0395 49.4329C42.9423 47.0408 43.8983 44.6679 44.8649 42.3002C45.0175 41.9287 45.2622 41.5642 45.5478 41.2803C48.2739 38.5621 51.0143 35.858 53.7617 33.1609C54.0827 32.8472 54.2246 32.53 54.2246 32.0744C54.2122 22.9561 54.2158 21.3753 54.2158 12.257C54.2158 12.0257 54.2158 11.7926 54.2158 11.4947C53.8823 11.4947 53.6446 11.4947 53.4052 11.4947C50.8813 11.4947 48.3591 11.4964 45.8351 11.4947C44.8082 11.4929 44.5297 11.2213 44.5297 10.2206C44.5279 7.66195 44.5297 5.10505 44.5297 2.54639C44.5297 2.31506 44.5297 2.08198 44.5297 1.82962C32.6532 1.82962 20.8689 1.82962 9.04908 1.82962C9.04731 22.2148 9.04731 35.0238 9.04731 55.3984ZM50.9079 45.8333C56.4258 40.3795 61.894 34.9783 67.3179 29.6191C66.1154 28.4362 64.8702 27.2112 63.7617 26.1211C58.3271 31.4855 52.8465 36.8973 47.3304 42.3458C48.3307 43.3289 49.4127 44.391 50.4946 45.4512C50.6347 45.5879 50.7819 45.7176 50.9079 45.8333ZM68.8592 28.3135C69.3452 27.8193 69.8401 27.3514 70.2906 26.8466C71.0497 25.9967 71.181 24.8348 70.6666 23.8551C70.1523 22.8737 69.1324 22.3392 67.9671 22.4513C66.5499 22.5863 65.9114 23.7377 65.0387 24.5403C66.3264 25.8091 67.5574 27.0254 68.8592 28.3135ZM46.3921 3.45769C46.3921 5.44503 46.3921 7.54804 46.3921 9.64229C48.5435 9.64229 50.6418 9.64229 52.9192 9.64229C50.6471 7.48846 48.4992 5.4538 46.3921 3.45769ZM49.1537 46.9303C48.1267 45.9349 47.1193 44.9553 46.1065 43.9739C45.5372 45.4127 44.9306 46.9426 44.2566 48.6443C46.0427 48.0187 47.6461 47.4561 49.1537 46.9303Z" fill="black"/>
<path d="M50.9076 45.8333C50.7834 45.7176 50.6344 45.5879 50.4943 45.4512C49.4124 44.391 48.3304 43.3272 47.3301 42.3458C52.8462 36.899 58.3269 31.4873 63.7614 26.1211C64.87 27.2112 66.1151 28.4362 67.3176 29.6191C61.8937 34.9783 56.4255 40.3795 50.9076 45.8333Z" fill="#91CAFF"/>
<path d="M68.8588 28.3138C67.5569 27.0274 66.326 25.8094 65.04 24.5389C65.9127 23.738 66.553 22.5848 67.9684 22.4499C69.1337 22.3395 70.1536 22.8722 70.6679 23.8536C71.1805 24.835 71.051 25.9952 70.2919 26.8452C69.8396 27.3516 69.3448 27.8178 68.8588 28.3138Z" fill="#85BBFB"/>
<path d="M46.3906 3.45703C48.4978 5.45314 50.6457 7.48779 52.9178 9.64162C50.6386 9.64162 48.5421 9.64162 46.3906 9.64162C46.3906 7.54738 46.3906 5.44437 46.3906 3.45703Z" fill="#99CEFF"/>
<path d="M49.153 46.9301C47.6471 47.4576 46.0437 48.0184 44.2559 48.6441C44.9299 46.9424 45.5365 45.4124 46.1058 43.9736C47.1168 44.955 48.126 45.9329 49.153 46.9301Z" fill="#99CEFF"/>
<path d="M51.9718 47.4363C51.5905 47.7763 51.1329 48.0865 50.6557 48.2617C48.2524 49.138 45.8296 49.9652 43.4156 50.8116C42.9473 50.9764 42.3851 51.1902 42.0907 50.6977C41.8955 50.3735 41.8991 49.8074 42.0392 49.4324C42.942 47.0402 43.898 44.6673 44.8647 42.2997C45.0172 41.9282 45.262 41.5637 45.5475 41.2798C48.2737 38.5616 51.014 35.8575 53.7614 33.1604C54.0825 32.8467 54.2244 32.5295 54.2244 32.0738C54.212 22.9556 54.2155 21.3748 54.2155 12.2565C54.2155 12.0252 54.2155 11.7921 54.2155 11.4942C53.8821 11.4942 53.6444 11.4942 53.4049 11.4942C50.881 11.4942 48.3588 11.4959 45.8349 11.4942C44.8079 11.4924 44.5295 11.2208 44.5295 10.2201C44.5277 7.66144 44.5295 5.10453 44.5295 2.54588C44.5295 2.31455 44.5295 2.08146 44.5295 1.8291C32.6529 1.8291 20.8686 1.8291 9.04883 1.8291C9.04883 22.2125 9.04883 35.0216 9.04883 55.3979C24.1357 55.3979 39.1499 55.3979 54.1481 55.3979C54.1481 52.0454 54.1481 48.7472 54.1481 45.2877C53.3482 46.0851 52.6901 46.7949 51.9718 47.4363ZM31.4858 42.9832H31.4841H31.4858Z" fill="#7EB2FF"/>
<path d="M18.6652 17.5371C18.6652 17.5371 13.7837 26.278 21.8183 30.4995H31.2757C31.2757 30.4995 38.9023 26.681 34.5293 17.8389C34.5293 17.8389 28.5285 8.89548 20.1905 15.7281C20.1905 15.7301 19.0711 16.6336 18.6652 17.5371Z" fill="#B7D8FF"/>
<path d="M27.1813 24.1313C27.1753 24.2683 27.1632 24.3914 27.1632 24.5145C27.1612 26.1825 27.1733 27.8484 27.1532 29.5164C27.1492 29.8877 27.2677 29.981 27.6275 29.9731C28.7308 29.9473 29.8341 29.9612 30.9374 29.9453C31.1022 29.9433 31.2911 29.8897 31.4277 29.7984C33.6423 28.3051 34.9587 26.248 35.3124 23.617C35.9836 18.6072 32.3984 14.6438 27.8525 13.9031C25.4349 13.508 23.2223 14.0481 21.2569 15.5195C20.7746 15.8809 20.4651 15.9047 20.234 15.6009C19.9787 15.2653 20.0732 14.9675 20.5515 14.6021C23.9116 12.0366 28.6423 11.985 32.2456 14.4194C38.2042 18.4463 37.8445 26.8814 32.2014 30.6919C31.9904 30.8349 31.9 30.9798 31.904 31.236C31.914 31.7999 31.9542 32.3738 31.8558 32.9238C31.6106 34.2999 30.7746 35.2152 29.4261 35.6422C29.187 35.7176 29.1146 35.8209 29.0905 36.0512C28.9438 37.4412 27.9591 38.3724 26.6307 38.3943C25.2641 38.4181 24.2492 37.5444 24.0423 36.1445C24.0001 35.8626 23.9257 35.7017 23.6062 35.6044C22.2416 35.1914 21.3192 34.0099 21.2227 32.6081C21.1926 32.1593 21.1906 31.7046 21.2066 31.2558C21.2167 30.9858 21.1242 30.8309 20.8931 30.68C16.5402 27.8226 15.2279 21.677 18.0354 17.3264C18.0957 17.2311 18.154 17.1298 18.2304 17.0504C18.4574 16.8141 18.7267 16.8082 18.99 16.969C19.2392 17.1219 19.2894 17.3642 19.193 17.6263C19.1447 17.7533 19.0603 17.8685 18.988 17.9837C16.5503 21.7981 17.7701 27.3143 21.6005 29.7606C21.7894 29.8818 22.0427 29.9532 22.2677 29.9572C23.3449 29.9771 24.4241 29.9671 25.5033 29.9652C25.6399 29.9652 25.7746 29.9532 25.9333 29.9453C25.9333 27.9914 25.9333 26.0653 25.9333 24.1055C25.7505 24.1392 25.5837 24.173 25.4148 24.2028C24.4402 24.3755 23.582 24.1233 22.8405 23.4859C22.5189 23.2099 22.4808 22.8545 22.7119 22.5944C22.941 22.3362 23.2866 22.3422 23.6242 22.6083C24.4161 23.2377 25.2782 23.2397 26.0881 22.6103C26.4498 22.3283 26.6769 22.3283 27.0366 22.6123C27.8505 23.2516 28.6886 23.2516 29.4924 22.6123C29.83 22.3442 30.1737 22.3362 30.4048 22.5904C30.646 22.8585 30.5977 23.2258 30.2581 23.5078C29.5065 24.1333 28.6484 24.3815 27.6737 24.1948C27.537 24.169 27.4024 24.1412 27.2657 24.1154C27.2537 24.1114 27.2396 24.1194 27.1813 24.1313ZM22.3642 31.1724C22.3642 31.5696 22.3582 31.931 22.3642 32.2923C22.3883 33.6823 23.3308 34.6255 24.7356 34.6394C25.9775 34.6513 27.2195 34.6434 28.4615 34.6255C29.5949 34.6076 30.4993 33.8948 30.6902 32.7967C30.7806 32.2784 30.7063 31.7344 30.7063 31.1744C27.941 31.1724 25.1817 31.1724 22.3642 31.1724ZM27.945 35.8328C27.0025 35.8328 26.08 35.8328 25.1556 35.8328C25.2581 36.7521 25.8308 37.3022 26.6186 37.2744C27.3642 37.2505 27.9269 36.6529 27.945 35.8328Z" fill="black"/>
<path d="M39.362 23.5795C39.1852 23.5795 39.0063 23.5914 38.8315 23.5775C38.5039 23.5497 38.321 23.3491 38.311 23.0394C38.3009 22.7435 38.4717 22.5151 38.7732 22.4893C39.1852 22.4556 39.6072 22.4576 40.0192 22.4993C40.3287 22.531 40.4573 22.7733 40.4372 23.0731C40.4191 23.361 40.2603 23.5417 39.9689 23.5715C39.77 23.5914 39.565 23.5755 39.364 23.5755C39.362 23.5755 39.362 23.5775 39.362 23.5795Z" fill="black"/>
<path d="M13.7829 23.5795C13.6061 23.5795 13.4272 23.5914 13.2524 23.5775C12.9248 23.5497 12.7419 23.3491 12.7319 23.0394C12.7218 22.7435 12.8926 22.5151 13.1941 22.4893C13.6061 22.4556 14.0281 22.4576 14.4401 22.4993C14.7496 22.531 14.8782 22.7733 14.8581 23.0731C14.84 23.361 14.6812 23.5417 14.3898 23.5715C14.1909 23.5914 13.9859 23.5755 13.7849 23.5755C13.7829 23.5755 13.7829 23.5775 13.7829 23.5795Z" fill="black"/>
<path d="M25.996 10.4022C25.996 10.2275 25.984 10.0507 25.998 9.87798C26.0262 9.55432 26.2291 9.37362 26.5426 9.3637C26.8421 9.35377 27.0732 9.52255 27.0993 9.8204C27.1335 10.2275 27.1315 10.6444 27.0893 11.0515C27.0571 11.3573 26.8119 11.4844 26.5085 11.4645C26.2171 11.4467 26.0342 11.2898 26.0041 11.0019C25.984 10.8053 26 10.6027 26 10.4042C26 10.4022 25.998 10.4022 25.996 10.4022Z" fill="black"/>
<path d="M17.6864 14.5894C17.5699 14.4583 17.4433 14.3332 17.3388 14.1922C17.1438 13.9301 17.176 13.6621 17.4071 13.4496C17.6261 13.2471 17.9135 13.2232 18.1306 13.4317C18.428 13.7177 18.7033 14.0314 18.9445 14.365C19.1253 14.6152 19.0228 14.8713 18.7837 15.054C18.5526 15.2288 18.3094 15.2307 18.0944 15.0342C17.9477 14.8991 17.8251 14.7363 17.6925 14.5854C17.6904 14.5874 17.6884 14.5874 17.6864 14.5894Z" fill="black"/>
<path d="M35.3512 13.8077C35.4839 13.6925 35.6105 13.5674 35.7531 13.4642C36.0184 13.2716 36.2897 13.3033 36.5048 13.5317C36.7097 13.7481 36.7339 14.0321 36.5228 14.2465C36.2335 14.5404 35.9159 14.8124 35.5783 15.0507C35.3251 15.2294 35.0658 15.1282 34.881 14.8919C34.7041 14.6635 34.7021 14.4233 34.9011 14.2108C35.0377 14.0658 35.2025 13.9447 35.3552 13.8137C35.3532 13.8117 35.3512 13.8097 35.3512 13.8077Z" fill="black"/>
<path d="M22.365 31.1729C25.1845 31.1729 27.9418 31.1729 30.707 31.1729C30.707 31.7328 30.7814 32.2789 30.691 32.7951C30.5 33.8932 29.5957 34.608 28.4623 34.6239C27.2203 34.6418 25.9783 34.6497 24.7364 34.6378C23.3316 34.6239 22.3911 33.6807 22.365 32.2908C22.359 31.9314 22.365 31.57 22.365 31.1729Z" fill="#5379B6"/>
<path d="M27.9466 35.832C27.9285 36.6521 27.3658 37.2478 26.6203 37.2736C25.8325 37.3014 25.2597 36.7494 25.1572 35.832C26.0817 35.832 27.0041 35.832 27.9466 35.832Z" fill="#7D9DD0"/>
<path d="M24.082 46.7965H13.6173C13.1278 46.7965 12.7305 46.4039 12.7305 45.9202C12.7305 45.4365 13.1278 45.0439 13.6173 45.0439H24.082C24.5715 45.0439 24.9688 45.4365 24.9688 45.9202C24.9688 46.4039 24.5715 46.7965 24.082 46.7965Z" fill="#1C3967"/>
<path d="M27.8067 51.7047H13.6173C13.1278 51.7047 12.7305 51.3121 12.7305 50.8284C12.7305 50.3447 13.1278 49.9521 13.6173 49.9521H27.8067C28.2963 49.9521 28.6936 50.3447 28.6936 50.8284C28.6936 51.3121 28.2963 51.7047 27.8067 51.7047Z" fill="#1C3967"/>
<path d="M32.9499 51.7047H31.3536C30.8641 51.7047 30.4668 51.3121 30.4668 50.8284C30.4668 50.3447 30.8641 49.9521 31.3536 49.9521H32.9499C33.4395 49.9521 33.8368 50.3447 33.8368 50.8284C33.8368 51.3121 33.4395 51.7047 32.9499 51.7047Z" fill="#1C3967"/>
<path d="M28.6052 46.8853H27.0089C26.5194 46.8853 26.1221 46.4928 26.1221 46.0091C26.1221 45.5254 26.5194 45.1328 27.0089 45.1328H28.6052C29.0948 45.1328 29.4921 45.5254 29.4921 46.0091C29.4921 46.4928 29.0948 46.8853 28.6052 46.8853Z" fill="#1C3967"/>
<path d="M37.9158 51.7047H36.3195C35.8299 51.7047 35.4326 51.3121 35.4326 50.8284C35.4326 50.3447 35.8299 49.9521 36.3195 49.9521H37.9158C38.4053 49.9521 38.8026 50.3447 38.8026 50.8284C38.8026 51.3121 38.4053 51.7047 37.9158 51.7047Z" fill="#1C3967"/>
</svg>
